<svg width="29" height="37" viewBox="0 0 29 37" fill="none" xmlns="http://www.w3.org/2000/svg">
<path d="M12.8249 2.10077C8.24632 2.79723 4.35773 5.97001 2.76489 10.3165C1.79113 12.9798 1.74599 15.9269 2.63592 18.6482C3.34528 20.8086 4.68017 22.8077 6.37619 24.2586C7.3564 25.097 8.48493 25.8192 9.56187 26.29L9.99393 26.4835L12.0059 30.6042C14.2308 35.157 14.1469 35.0151 14.7531 35.0151C15.1336 35.0151 15.4109 34.841 15.6172 34.4863C15.7075 34.3316 16.6297 32.4614 17.6679 30.3205L19.5574 26.4319L20.3119 26.0578C22.3562 25.0389 23.9555 23.6331 25.2388 21.7307C27.973 17.668 28.1084 12.3478 25.587 8.13679C23.6395 4.89952 20.2539 2.64246 16.4943 2.09432C15.6301 1.97179 13.6762 1.97179 12.8249 2.10077ZM15.3399 8.31735C18.5966 8.65914 21.0793 11.4127 21.0793 14.6694C21.0793 18.4354 17.7647 21.4276 14.0437 21.0214C9.92944 20.57 7.3306 16.4944 8.66549 12.5735C9.43289 10.3165 11.6061 8.5753 13.9664 8.3238C14.6757 8.24642 14.6628 8.24642 15.3399 8.31735Z" fill="#5DDA87" stroke="#086026" stroke-width="2.8"/>
</svg>
